<svg width="8" height="8" viewBox="0 0 8 8" fill="none" xmlns="http://www.w3.org/2000/svg">
<path d="M7.99082 6.85645C7.99082 7.48789 6.20201 7.99977 3.99541 7.99977C1.78881 7.99977 0 7.48789 0 6.85645C0 6.22502 1.78881 5.71313 3.99541 5.71313C6.20201 5.71313 7.99082 6.22502 7.99082 6.85645Z" fill="#D45500"/>
<path d="M0.0085952 4.96631V4.97866C0.00894087 4.97457 0.00978086 4.97039 0.0102936 4.96631H0.0085952ZM7.99482 4.96631C7.99656 4.98016 7.99821 4.99433 7.99821 5.0083V4.96631H7.99482ZM7.99821 5.0083C7.99821 5.63941 6.20791 6.15136 4.00245 6.15136C1.83144 6.15136 0.06309 5.65543 0.00841586 5.03794V6.74361C0.00754591 6.75341 0.00756841 6.76277 0.00756841 6.77263C0.00756841 6.78208 0.00761908 6.79164 0.00841586 6.80104C0.0609301 7.41911 1.83006 7.9163 4.00245 7.9163C6.17489 7.9163 7.944 7.41911 7.99648 6.80104H7.99818V6.78004C7.99824 6.77758 7.99818 6.7751 7.99818 6.77263C7.99818 6.77016 7.99824 6.76768 7.99818 6.76522V5.00832L7.99821 5.0083Z" fill="#FF9955"/>
<path d="M8.0001 5.0149C8.0001 5.64633 6.21129 6.15821 4.00469 6.15821C1.79808 6.15821 0.00927734 5.64633 0.00927734 5.0149C0.00927734 4.38346 1.79808 3.87158 4.00469 3.87158C6.21129 3.87158 8.0001 4.38346 8.0001 5.0149Z" fill="#FF6600"/>
<path d="M7.94851 4.93624C7.94851 5.55633 6.19197 6.05901 4.02516 6.05901C1.85835 6.05901 0.101807 5.55633 0.101807 4.93624C0.101807 4.31616 1.85835 3.81348 4.02516 3.81348C6.19197 3.81348 7.94851 4.31616 7.94851 4.93624Z" fill="#FFB380" fill-opacity="0.7"/>
<path d="M7.99082 4.9502C7.99082 5.58164 6.20201 6.09352 3.99541 6.09352C1.78881 6.09352 0 5.58164 0 4.9502C0 4.31877 1.78881 3.80688 3.99541 3.80688C6.20201 3.80688 7.99082 4.31877 7.99082 4.9502Z" fill="#D45500"/>
<path d="M0.0085952 3.05981V3.07217C0.00894087 3.06808 0.00978086 3.06389 0.0102936 3.05981H0.0085952ZM7.99482 3.05981C7.99656 3.07367 7.99821 3.08783 7.99821 3.10181V3.05981H7.99482ZM7.99821 3.10181C7.99821 3.73292 6.20791 4.24487 4.00245 4.24487C1.83144 4.24487 0.06309 3.74894 0.00841586 3.13145V4.83711C0.00754591 4.84692 0.00756841 4.85628 0.00756841 4.86614C0.00756841 4.87559 0.00761908 4.88515 0.00841586 4.89455C0.0609301 5.51262 1.83006 6.00981 4.00245 6.00981C6.17489 6.00981 7.944 5.51262 7.99648 4.89455H7.99818V4.87355C7.99824 4.87109 7.99818 4.8686 7.99818 4.86614C7.99818 4.86367 7.99824 4.86119 7.99818 4.85873V3.10183L7.99821 3.10181Z" fill="#FF9955"/>
<path d="M8.0001 3.10841C8.0001 3.73984 6.21129 4.25172 4.00469 4.25172C1.79808 4.25172 0.00927734 3.73984 0.00927734 3.10841C0.00927734 2.47697 1.79808 1.96509 4.00469 1.96509C6.21129 1.96509 8.0001 2.47697 8.0001 3.10841Z" fill="#FF6600"/>
<path d="M7.94851 3.02975C7.94851 3.64984 6.19197 4.15251 4.02516 4.15251C1.85835 4.15251 0.101807 3.64984 0.101807 3.02975C0.101807 2.40966 1.85835 1.90698 4.02516 1.90698C6.19197 1.90698 7.94851 2.40966 7.94851 3.02975Z" fill="#FFB380" fill-opacity="0.7"/>
<path d="M7.99082 3.04298C7.99082 3.67441 6.20201 4.18629 3.99541 4.18629C1.78881 4.18629 0 3.67441 0 3.04298C0 2.41154 1.78881 1.89966 3.99541 1.89966C6.20201 1.89966 7.99082 2.41154 7.99082 3.04298Z" fill="#D45500"/>
<path d="M0.0085952 1.15283V1.16518C0.00894087 1.16109 0.00978086 1.15691 0.0102936 1.15283H0.0085952ZM7.99482 1.15283C7.99656 1.16669 7.99821 1.18085 7.99821 1.19482V1.15283H7.99482ZM7.99821 1.19482C7.99821 1.82594 6.20791 2.33789 4.00245 2.33789C1.83144 2.33789 0.06309 1.84195 0.00841586 1.22447V2.93013C0.00754591 2.93993 0.00756841 2.94929 0.00756841 2.95916C0.00756841 2.96861 0.00761908 2.97816 0.00841586 2.98756C0.0609301 3.60563 1.83006 4.10283 4.00245 4.10283C6.17489 4.10283 7.944 3.60563 7.99648 2.98756H7.99818V2.96657C7.99824 2.9641 7.99818 2.96162 7.99818 2.95916C7.99818 2.95669 7.99824 2.95421 7.99818 2.95174V1.19484L7.99821 1.19482Z" fill="#FF9955"/>
<path d="M8.0001 1.20142C8.0001 1.83286 6.21129 2.34474 4.00469 2.34474C1.79808 2.34474 0.00927734 1.83286 0.00927734 1.20142C0.00927734 0.569986 1.79808 0.0581055 4.00469 0.0581055C6.21129 0.0581055 8.0001 0.569986 8.0001 1.20142Z" fill="#FF6600"/>
<path d="M7.94851 1.12277C7.94851 1.74285 6.19197 2.24553 4.02516 2.24553C1.85835 2.24553 0.101807 1.74285 0.101807 1.12277C0.101807 0.502679 1.85835 0 4.02516 0C6.19197 0 7.94851 0.502679 7.94851 1.12277Z" fill="#FFB380" fill-opacity="0.7"/>
<path fill-rule="evenodd" clip-rule="evenodd" d="M4 3.001H6V2H3V7H6V6H4V5H5.5V4H4V3.001Z" fill="#231F20" fill-opacity="0.7"/>
</svg>
