<!--
  - Licensed to the Apache Software Foundation (ASF) under one
  - or more contributor license agreements.  See the NOTICE file
  - distributed with this work for additional information
  - regarding copyright ownership.  The ASF licenses this file
  - to you under the Apache License, Version 2.0 (the
  - "License"); you may not use this file except in compliance
  - with the License.  You may obtain a copy of the License at
  -
  - http://www.apache.org/licenses/LICENSE-2.0
  -
  - Unless required by applicable law or agreed to in writing,
  - software distributed under the License is distributed on an
  - "AS IS" BASIS, WITHOUT WARRANTIES OR CONDITIONS OF ANY
  - KIND, either express or implied.  See the License for the
  - specific language governing permissions and limitations
  - under the License.
  -->

<svg width="15" height="7" viewBox="0 0 15 7" fill="none" xmlns="http://www.w3.org/2000/svg">
<path fill-rule="evenodd" clip-rule="evenodd" d="M0 7H15V0H0V7Z" fill="#F26522" fill-opacity="0.7"/>
<path fill-rule="evenodd" clip-rule="evenodd" d="M1 3.501C1 2 1.931 1 3.256 1C4.20239 1 4.55 1.311 4.969 1.753L4.4267 2.4271C4.0767 2.0681 3.75 2 3.25 2C2.418 2 2 2.7379 2 3.487C2 4.2361 2.412 5 3.25 5C3.787 5 4.0517 4.8934 4.4267 4.5064L5 5.144C4.544 5.669 4.19733 6 3.225 6C1.949 6 1 5.002 1 3.501Z" fill="#231F20" fill-opacity="0.7"/>
<path fill-rule="evenodd" clip-rule="evenodd" d="M11 1H12V5H14.5V6H11V1Z" fill="#231F20" fill-opacity="0.7"/>
<path fill-rule="evenodd" clip-rule="evenodd" d="M7.5 2H6V1H10V2H8.5V6H7.5V2Z" fill="#231F20" fill-opacity="0.7"/>
</svg>
