<svg width="15" height="7" viewBox="0 0 15 7" fill="none" xmlns="http://www.w3.org/2000/svg">
<path fill-rule="evenodd" clip-rule="evenodd" d="M0 7H15V0H0V7Z" fill="#F26522" fill-opacity="0.7"/>
<path fill-rule="evenodd" clip-rule="evenodd" d="M5 6V1H7.1157C7.7041 1 8.1603 1.1786 8.4645 1.5071C8.7223 1.7857 8.8612 2.1786 8.8612 2.65V2.6643C8.8612 3.4714 8.4579 3.9786 7.8694 4.2143L9 6H7.8099L6.8182 4.4H6.0182V6H5ZM6.0182 3.4286H7.0496C7.5455 3.4286 7.8298 3.1429 7.8298 2.7214V2.7071C7.8298 2.2357 7.5256 1.9929 7.0298 1.9929H6.0182V3.4286Z" fill="#231F20" fill-opacity="0.7"/>
<path fill-rule="evenodd" clip-rule="evenodd" d="M2 2.001H4V1H1V6H2V4H3.8V3H2V2.001Z" fill="#231F20" fill-opacity="0.7"/>
<path fill-rule="evenodd" clip-rule="evenodd" d="M9 1H9.936L11.5 3L12.979 1H14V6H13V2.7L11.5 4.5L10 2.7V6H9V1Z" fill="#231F20" fill-opacity="0.7"/>
</svg>
