<svg width="8" height="8" viewBox="0 0 8 8" fill="none" xmlns="http://www.w3.org/2000/svg">
<path fill-rule="evenodd" clip-rule="evenodd" d="M7.04417 4.57903L8 5.23169C7.81604 5.77317 7.51407 6.26415 7.12293 6.67714L6.05112 6.21698C5.74606 6.4728 5.38779 6.67249 4.99413 6.79908L4.87735 7.91272C4.59438 7.96991 4.30088 8 4 8C3.69912 8 3.40562 7.96991 3.12265 7.91272L3.00587 6.79908C2.61221 6.67249 2.25394 6.4728 1.94888 6.21698L0.877075 6.67714C0.485935 6.26415 0.183956 5.77317 0 5.23169L0.955835 4.57903C0.916732 4.39179 0.896226 4.19817 0.896226 4C0.896226 3.80183 0.916732 3.60821 0.955835 3.42097L0 2.76831C0.183956 2.22683 0.485935 1.73585 0.877075 1.32286L1.94888 1.78302C2.25394 1.5272 2.61221 1.32751 3.00587 1.20092L3.12265 0.0872765C3.40562 0.0300885 3.69912 0 4 0C4.30088 0 4.59438 0.0300885 4.87735 0.0872765L4.99413 1.20092C5.38779 1.32751 5.74606 1.5272 6.05111 1.78302L7.12293 1.32286C7.51407 1.73585 7.81604 2.22683 8 2.76831L7.04417 3.42097C7.08327 3.60821 7.10377 3.80183 7.10377 4C7.10377 4.19817 7.08327 4.39179 7.04417 4.57903ZM4 5.41563C4.82137 5.41563 5.48722 4.78188 5.48722 4.00012C5.48722 3.21836 4.82137 2.58462 4 2.58462C3.17863 2.58462 2.51277 3.21836 2.51277 4.00012C2.51277 4.78188 3.17863 5.41563 4 5.41563Z" fill="#6E6E6E"/>
</svg>
