<svg width="16" height="16" viewBox="0 0 16 16" fill="none" xmlns="http://www.w3.org/2000/svg">
<path d="M3.01202 15.9819C2.77254 15.9535 2.33875 15.8428 2.10825 15.7515C1.14427 15.369 0.497843 14.6776 0.19731 13.7069C0.0375923 13.1909 0.00186869 12.9379 7.30513e-05 12.3102C-0.00176512 11.6737 0.0303625 11.3908 0.178881 10.737C0.555587 9.0776 1.44906 7.33341 2.78823 5.64127C3.38665 4.88546 3.94972 4.27967 4.69917 3.58483C5.07436 3.23703 6.10449 2.41817 6.49103 2.16018C6.84581 1.92361 6.86169 1.89744 6.86169 1.54756C6.86169 1.16497 6.95555 0.937172 7.24926 0.607367C7.57068 0.246337 7.96619 0.0362321 8.32475 0.0362321C8.65241 0.0361696 8.75712 0.174429 8.7609 0.612126C8.76172 0.705595 8.77584 0.783273 8.794 0.794276C8.81143 0.804804 8.97744 0.754203 9.16286 0.681849C10.0329 0.342379 10.8366 0.124988 11.5482 0.0366632C12.1871 -0.0426058 13.1549 0.0113703 13.6387 0.15324C14.0221 0.265638 14.6103 0.585494 14.8891 0.832773C15.2965 1.1947 15.6783 1.80538 15.8264 2.3331C15.9665 2.83182 16.0002 3.09204 16 3.67566C15.9998 4.14836 15.9897 4.29066 15.9286 4.6789C15.8246 5.33955 15.5701 6.32644 15.4798 6.41863C15.4643 6.43453 15.1282 6.4478 14.7328 6.44813C14.1043 6.44872 14.0139 6.44117 14.0139 6.38859C14.0139 6.35552 14.0478 6.22265 14.0892 6.09343C14.2002 5.74757 14.2588 5.49821 14.3331 5.05495C14.3901 4.71519 14.3997 4.5772 14.4005 4.08814C14.4012 3.59923 14.3931 3.47552 14.3432 3.22259C14.2438 2.71896 14.0431 2.22708 13.8093 1.91467C13.0366 0.88214 11.8322 0.535682 10.1632 0.865338C9.64228 0.96819 8.82971 1.25179 8.76544 1.3535C8.73872 1.39536 8.7254 1.60152 8.71093 2.19734C8.7004 2.63094 8.68383 3.02587 8.67411 3.07464C8.52772 3.81038 7.40299 4.57348 6.94652 4.24784C6.78585 4.13305 6.78094 4.09978 6.80135 3.26259C6.81401 2.74394 6.81125 2.51704 6.79206 2.49845C6.77706 2.48386 6.56477 2.63462 6.32028 2.83346C5.10397 3.82257 4.15039 4.88841 3.33574 6.17016C2.62741 7.28463 2.20638 8.2162 1.92664 9.2868C1.77429 9.87013 1.72779 10.2431 1.72656 10.8927C1.72557 11.4055 1.73225 11.497 1.79268 11.7975C2.05825 13.1187 2.84833 13.9209 4.13835 14.1796C4.40713 14.2334 4.59171 14.2427 5.05044 14.2255C6.23368 14.1812 7.47834 13.7372 8.77592 12.8974C8.98223 12.7639 9.17635 12.6457 9.20726 12.6347L9.26352 12.6148V14.0019L9.11977 14.1035C9.0407 14.1593 8.79032 14.3162 8.56341 14.4523C7.21101 15.2631 5.76882 15.8075 4.54968 15.9675C4.27409 16.0036 3.27761 16.012 3.01204 15.9805L3.01202 15.9819ZM6.00035 9.73825C5.70425 9.59094 5.57856 9.35967 5.58139 8.96786C5.58469 8.51167 5.78109 7.99317 6.17433 7.40211C6.69696 6.617 7.4464 5.95531 8.15048 5.65644C8.53579 5.49287 9.00757 5.45823 9.2222 5.57791C9.51451 5.74103 9.63585 6.00734 9.60505 6.41744C9.51347 7.63391 8.14396 9.27237 6.84921 9.714C6.57958 9.8059 6.15959 9.81835 6.00044 9.73916L6.00035 9.73825Z" fill="url(#paint0_linear_416_76)"/>
<defs>
<linearGradient id="paint0_linear_416_76" x1="1.137" y1="15.2399" x2="17.2474" y2="6.79597" gradientUnits="userSpaceOnUse">
<stop stop-color="#20A1FF"/>
<stop offset="0.5414" stop-color="#2072BE"/>
<stop offset="1" stop-color="#29BBE9"/>
</linearGradient>
</defs>
</svg>
