<svg width="16" height="16" viewBox="0 0 16 16" fill="none" xmlns="http://www.w3.org/2000/svg">
<path d="M15.9816 13.7132C15.9816 14.9761 12.404 15.9998 7.9908 15.9998C3.5776 15.9998 0 14.9761 0 13.7132C0 12.4503 3.5776 11.4265 7.9908 11.4265C12.404 11.4265 15.9816 12.4503 15.9816 13.7132Z" fill="#D45500"/>
<path d="M0.0171904 9.93286V9.95756C0.0178817 9.94939 0.0195617 9.94102 0.0205872 9.93286H0.0171904ZM15.9896 9.93286C15.9931 9.96057 15.9964 9.9889 15.9964 10.0168V9.93286H15.9896ZM15.9964 10.0168C15.9964 11.2791 12.4158 12.303 8.00488 12.303C3.66288 12.303 0.12618 11.3111 0.0168317 10.0761V13.4875C0.0150918 13.5071 0.0151368 13.5258 0.0151368 13.5455C0.0151368 13.5644 0.0152382 13.5836 0.0168317 13.6023C0.12186 14.8385 3.66011 15.8329 8.00488 15.8329C12.3498 15.8329 15.888 14.8385 15.9929 13.6023H15.9963V13.5604C15.9964 13.5554 15.9963 13.5505 15.9963 13.5455C15.9963 13.5406 15.9964 13.5356 15.9963 13.5307V10.0169L15.9964 10.0168Z" fill="#FF9955"/>
<path d="M15.9999 10.0301C15.9999 11.2929 12.4223 12.3167 8.00911 12.3167C3.59591 12.3167 0.0183105 11.2929 0.0183105 10.0301C0.0183105 8.76718 3.59591 7.74341 8.00911 7.74341C12.4223 7.74341 15.9999 8.76718 15.9999 10.0301Z" fill="#FF6600"/>
<path d="M15.897 9.87251C15.897 11.1127 12.3839 12.1181 8.0503 12.1181C3.7167 12.1181 0.203613 11.1127 0.203613 9.87251C0.203613 8.63232 3.7167 7.62695 8.0503 7.62695C12.3839 7.62695 15.897 8.63232 15.897 9.87251Z" fill="#FFB380" fill-opacity="0.7"/>
<path d="M15.9816 9.90043C15.9816 11.1633 12.404 12.1871 7.9908 12.1871C3.5776 12.1871 0 11.1633 0 9.90043C0 8.63754 3.5776 7.61377 7.9908 7.61377C12.404 7.61377 15.9816 8.63754 15.9816 9.90043Z" fill="#D45500"/>
<path d="M0.0171904 6.11963V6.14433C0.0178817 6.13615 0.0195617 6.12779 0.0205872 6.11963H0.0171904ZM15.9896 6.11963C15.9931 6.14734 15.9964 6.17566 15.9964 6.20361V6.11963H15.9896ZM15.9964 6.20361C15.9964 7.46585 12.4158 8.48976 8.00488 8.48976C3.66288 8.48976 0.12618 7.49788 0.0168317 6.2629V9.67426C0.0150918 9.69386 0.0151368 9.71258 0.0151368 9.73231C0.0151368 9.75121 0.0152382 9.77032 0.0168317 9.78912C0.12186 11.0253 3.66011 12.0197 8.00488 12.0197C12.3498 12.0197 15.888 11.0253 15.9929 9.78912H15.9963V9.74713C15.9964 9.7422 15.9963 9.73724 15.9963 9.73231C15.9963 9.72737 15.9964 9.72241 15.9963 9.71748V6.20365L15.9964 6.20361Z" fill="#FF9955"/>
<path d="M15.9999 6.21683C15.9999 7.47971 12.4223 8.50348 8.00911 8.50348C3.59591 8.50348 0.0183105 7.47971 0.0183105 6.21683C0.0183105 4.95394 3.59591 3.93018 8.00911 3.93018C12.4223 3.93018 15.9999 4.95394 15.9999 6.21683Z" fill="#FF6600"/>
<path d="M15.897 6.05927C15.897 7.29945 12.3839 8.30482 8.0503 8.30482C3.7167 8.30482 0.203613 7.29945 0.203613 6.05927C0.203613 4.81909 3.7167 3.81372 8.0503 3.81372C12.3839 3.81372 15.897 4.81909 15.897 6.05927Z" fill="#FFB380" fill-opacity="0.7"/>
<path d="M15.9816 6.08622C15.9816 7.3491 12.404 8.37287 7.9908 8.37287C3.5776 8.37287 0 7.3491 0 6.08622C0 4.82333 3.5776 3.79956 7.9908 3.79956C12.404 3.79956 15.9816 4.82333 15.9816 6.08622Z" fill="#D45500"/>
<path d="M0.0171904 2.30591V2.33061C0.0178817 2.32243 0.0195617 2.31407 0.0205872 2.30591H0.0171904ZM15.9896 2.30591C15.9931 2.33362 15.9964 2.36194 15.9964 2.38989V2.30591H15.9896ZM15.9964 2.38989C15.9964 3.65213 12.4158 4.67604 8.00488 4.67604C3.66288 4.67604 0.12618 3.68416 0.0168317 2.44918V5.86053C0.0150918 5.88014 0.0151368 5.89886 0.0151368 5.91858C0.0151368 5.93749 0.0152382 5.9566 0.0168317 5.9754C0.12186 7.21155 3.66011 8.20594 8.00488 8.20594C12.3498 8.20594 15.888 7.21155 15.9929 5.9754H15.9963V5.9334C15.9964 5.92848 15.9963 5.92351 15.9963 5.91858C15.9963 5.91365 15.9964 5.90869 15.9963 5.90376V2.38993L15.9964 2.38989Z" fill="#FF9955"/>
<path d="M15.9999 2.40311C15.9999 3.66599 12.4223 4.68976 8.00911 4.68976C3.59591 4.68976 0.0183105 3.66599 0.0183105 2.40311C0.0183105 1.14022 3.59591 0.116455 8.00911 0.116455C12.4223 0.116455 15.9999 1.14022 15.9999 2.40311Z" fill="#FF6600"/>
<path d="M15.897 2.24555C15.897 3.48574 12.3839 4.4911 8.0503 4.4911C3.7167 4.4911 0.203613 3.48574 0.203613 2.24555C0.203613 1.00537 3.7167 0 8.0503 0C12.3839 0 15.897 1.00537 15.897 2.24555Z" fill="#FFB380" fill-opacity="0.7"/>
</svg>
