<svg width="15" height="7" viewBox="0 0 15 7" fill="none" xmlns="http://www.w3.org/2000/svg">
<path fill-rule="evenodd" clip-rule="evenodd" d="M0 7H15V0H0V7Z" fill="#F26522" fill-opacity="0.7"/>
<path fill-rule="evenodd" clip-rule="evenodd" d="M10 1H10.936L13 4.5V1H14V6H13L11 2.7V6H10V1Z" fill="#231F20" fill-opacity="0.7"/>
<path fill-rule="evenodd" clip-rule="evenodd" d="M1.97277 2.5015C1.97277 2.1331 2.284 2 2.845 2C2.853 2 4 2 4 2V1C4 1 2.894 1 2.86 1C1.778 1 1 1.4592 1 2.45C1 3.3145 1.41956 3.6905 2.47125 3.9161C3.24159 4.0813 3.49616 4.2286 3.49616 4.548C3.49616 4.8674 3.13843 5 2.47125 5C2.45525 5 1.3 5 1.3 5V6C1.3 6 2.46325 6 2.47125 6C4.5 6 4.5 5 4.5 4.548C4.5 3.9161 4.0203 3.4207 3.15869 3.1469C2.29712 2.873 1.97277 2.87 1.97277 2.5015Z" fill="#231F20" fill-opacity="0.7"/>
<path fill-rule="evenodd" clip-rule="evenodd" d="M5 3.501C5 2 5.931 1 7.256 1C8.20239 1 8.55 1.311 8.969 1.753L8.4267 2.4271C8.0767 2.0681 7.75 2 7.25 2C6.418 2 6 2.7379 6 3.487C6 4.2361 6.412 5 7.25 5C7.787 5 8.0517 4.8934 8.4267 4.5064L9 5.144C8.544 5.669 8.19733 6 7.225 6C5.949 6 5 5.002 5 3.501Z" fill="#231F20" fill-opacity="0.7"/>
</svg>
