<svg width="15" height="7" viewBox="0 0 15 7" fill="none" xmlns="http://www.w3.org/2000/svg">
<path fill-rule="evenodd" clip-rule="evenodd" d="M0 7H15V0H0V7Z" fill="#F26522" fill-opacity="0.7"/>
<path fill-rule="evenodd" clip-rule="evenodd" d="M10 3.501C10 2 10.931 1 12.256 1C13.2024 1 13.55 1.311 13.969 1.753L13.4267 2.4271C13.0767 2.0681 12.75 2 12.25 2C11.418 2 11 2.7379 11 3.487C11 4.2361 11.412 5 12.25 5C12.787 5 13.0517 4.8934 13.4267 4.5064L14 5.144C13.544 5.669 13.1973 6 12.225 6C10.949 6 10 5.002 10 3.501Z" fill="#231F20" fill-opacity="0.7"/>
<path fill-rule="evenodd" clip-rule="evenodd" d="M1.97277 2.5015C1.97277 2.1331 2.284 2 2.845 2C2.853 2 4 2 4 2V1C4 1 2.894 1 2.86 1C1.778 1 1 1.4592 1 2.45C1 3.3145 1.41956 3.6905 2.47125 3.9161C3.24159 4.0813 3.49616 4.2286 3.49616 4.548C3.49616 4.8674 3.13843 5 2.47125 5C2.45525 5 1.3 5 1.3 5V6C1.3 6 2.46325 6 2.47125 6C4.5 6 4.5 5 4.5 4.548C4.5 3.9161 4.0203 3.4207 3.15869 3.1469C2.29712 2.873 1.97277 2.87 1.97277 2.5015Z" fill="#231F20" fill-opacity="0.7"/>
<path fill-rule="evenodd" clip-rule="evenodd" d="M7 6L5 1H6.05L7.5 5L8.95 1H10L8 6H7Z" fill="#231F20" fill-opacity="0.7"/>
</svg>
